:SAMPLES-PER-SECOND 30
:FRAME-RANGE 1-668
:FULLY-SPECIFIED
:DEGREES
168
root  45.3023 39.7215 4.81538 179.871 -37.7249 -177.513
RightUpLeg  -3.84987 -9.1218 -1.57937
RightLeg  11.7604 -25.5788 0.67534
RightFoot  -7.96224 -0.196727 4.83065
RightToes  -1.33073e-015 0 -3.6325e-017
Spine  5.34096 -0.00321441 6.41757
Spine1  2.93632 -0.477631 4.15636
HEad  -9.58878 56.0287 -16.5381
LeftShoulder1  1.33709 -0.292742 -29.1389
LeftArm  -19.9003 -4.05071 -6.39374
LeftForeArm  -0.028631 -21.3022 -5.53755
LeftHand  -0.390603 0.976829 10.2541
RightShoulder  7.44238 9.65821 49.5358
RightArm  -5.28558 2.32126 7.27881
RightForeArm  20.5281 9.04099 11.9082
RightHand  -0.833541 2.91828 -11.8426
LeftUpLeg  -2.19376 11.7347 15.6246
LeftLeg  3.6821 -5.29568 -0.476929
LeftFoot  -0.898445 1.27407 -13.8297
LeftToes  -2.73175e-012 1.00346e-010 -4.28452e-011
169
root  45.204 39.7328 4.90352 179.809 -37.7634 -177.514
RightUpLeg  -3.72507 -9.17308 -1.78987
RightLeg  11.5989 -25.7154 0.67
RightFoot  -7.76961 -0.21725 5.11806
RightToes  -1.33073e-015 0 -3.6325e-017
Spine  5.43845 0.12666 6.06832
Spine1  2.77563 -0.455595 4.65507
HEad  -9.29081 56.1624 -16.5975
LeftShoulder1  1.25867 -0.20088 -27.8652
LeftArm  -22.1341 -3.50802 -4.20553
LeftForeArm  4.10332 -25.4949 -5.25048
LeftHand  -0.446162 0.900781 11.5322
RightShoulder  7.47695 9.70986 49.571
RightArm  -5.22241 2.52446 6.83274
RightForeArm  20.8789 8.96616 11.9494
RightHand  -0.830297 2.90649 -11.8136
LeftUpLeg  -2.31822 11.7995 15.4647
LeftLeg  4.04716 -5.38449 -0.608815
LeftFoot  -1.08922 1.23411 -13.6337
LeftToes  -2.73175e-012 1.00346e-010 -4.28452e-011
170
root  45.1116 39.7421 4.99755 179.814 -37.7458 -177.514
RightUpLeg  -3.73035 -9.23312 -1.9781
RightLeg  11.4973 -25.6029 0.676806
RightFoot  -7.53283 -0.220815 5.14897
RightToes  -1.33073e-015 0 -3.6325e-017
Spine  5.66267 0.306033 5.53779
Spine1  2.41146 -0.428008 5.3847
HEad  -8.80992 56.3462 -16.4037
LeftShoulder1  1.13337 -0.044528 -25.7611
LeftArm  -24.7838 -2.3855 -1.82527
LeftForeArm  9.28506 -28.9307 -5.76699
LeftHand  -0.497181 0.764302 12.4887
RightShoulder  7.50565 9.68607 49.8497
RightArm  -4.76458 2.7601 6.08419
RightForeArm  21.1188 9.11172 11.9621
RightHand  -0.848836 3.00088 -11.9415
LeftUpLeg  -2.5644 11.8715 15.2848
LeftLeg  4.50281 -5.36467 -0.725144
LeftFoot  -1.28143 1.18925 -13.3769
LeftToes  -2.73175e-012 1.00346e-010 -4.28452e-011
171
root  45.0314 39.7457 5.09494 179.811 -37.6816 -177.472
RightUpLeg  -3.78842 -9.40593 -2.17181
RightLeg  11.4546 -25.3744 0.777882
RightFoot  -7.37877 -0.233555 5.29596
RightToes  -1.33073e-015 0 -3.6325e-017
Spine  5.88845 0.72199 4.27951
Spine1  2.10799 -0.432073 7.28021
HEad  -8.62748 56.3171 -16.8529
LeftShoulder1  0.999738 0.0952809 -23.0253
LeftArm  -26.2656 -0.720804 0.702426
LeftForeArm  13.1765 -32.1419 -6.33726
LeftHand  -0.524516 0.358409 12.1478
RightShoulder  7.41064 9.5171 49.8582
RightArm  -4.75251 3.17021 5.14029
RightForeArm  21.936 9.13023 11.9497
RightHand  -0.858388 3.03858 -12.0211
LeftUpLeg  -2.86198 11.8608 15.1108
LeftLeg  5.01194 -5.29534 -0.765643
LeftFoot  -1.46587 1.14666 -13.1261
LeftToes  -2.73175e-012 1.00346e-010 -4.28452e-011
172
root  44.9591 39.7516 5.20057 179.786 -37.5424 -177.372
RightUpLeg  -3.87622 -9.46937 -2.26574
RightLeg  11.3605 -25.1827 0.834858
RightFoot  -7.14851 -0.244916 5.35744
RightToes  -1.33073e-015 0 -3.6325e-017
Spine  6.12698 1.29098 2.82985
Spine1  1.82766 -0.375526 9.60874
HEad  -8.39668 56.0885 -17.2873
LeftShoulder1  0.84466 0.29549 -19.83
LeftArm  -26.9213 0.970418 3.65407
LeftForeArm  15.8255 -35.2821 -7.00767
LeftHand  -0.553575 -0.384326 11.2298
RightShoulder  7.23953 9.21748 49.8557
RightArm  -4.38226 3.5591 3.93533
RightForeArm  22.098 9.49957 11.8488
RightHand  -0.867149 3.059 -12.1128
LeftUpLeg  -3.1564 11.6896 14.9268
LeftLeg  5.47391 -5.01087 -0.674021
LeftFoot  -1.68057 1.11895 -13.0776
LeftToes  -2.73175e-012 1.00346e-010 -4.28452e-011
173
root  44.8909 39.757 5.30594 179.719 -37.4487 -177.198
RightUpLeg  -3.92631 -9.38642 -2.27424
RightLeg  11.1656 -25.2268 0.884421
RightFoot  -6.85072 -0.257678 5.37846
RightToes  -1.33073e-015 0 -3.6325e-017
Spine  6.27656 1.94054 1.29164
Spine1  1.64687 -0.294273 12.1821
HEad  -7.82056 55.556 -17.5057
LeftShoulder1  0.699217 0.461257 -16.2155
LeftArm  -26.2134 2.26419 6.70315
LeftForeArm  15.4646 -38.8901 -8.06807
LeftHand  -0.460949 -1.05782 8.44103
RightShoulder  7.06554 8.88942 49.9465
RightArm  -4.65538 3.87944 2.52616
RightForeArm  22.2406 9.73356 11.7456
RightHand  -0.868871 2.99963 -12.2179
LeftUpLeg  -3.513 11.5905 14.8167
LeftLeg  6.01903 -4.81791 -0.616214
LeftFoot  -1.91893 1.0765 -12.8809
LeftToes  -2.73175e-012 1.00346e-010 -4.28452e-011
174
root  44.8192 39.7637 5.41972 179.653 -37.549 -177.054
RightUpLeg  -3.83439 -9.40129 -2.3953
RightLeg  10.7663 -25.337 1.13441
RightFoot  -6.58215 -0.26861 5.38122
RightToes  -1.33073e-015 0 -3.6325e-017
Spine  6.40769 2.53013 -0.305507
Spine1  1.46234 -0.279481 14.7767
HEad  -7.30474 54.2411 -17.6745
LeftShoulder1  0.544103 0.627449 -11.7545
LeftArm  -24.7004 2.55438 9.05366
LeftForeArm  10.5094 -42.8227 -9.67833
LeftHand  -0.195615 -1.10762 3.62299
RightShoulder  6.84338 8.46776 50.0809
RightArm  -5.58692 4.46363 0.82205
RightForeArm  22.8979 9.36567 11.8676
RightHand  -0.863849 3.07556 -12.0454
LeftUpLeg  -3.89314 11.2059 14.5931
LeftLeg  6.47697 -4.51498 -0.431554
LeftFoot  -2.13864 1.04045 -12.7281
LeftToes  -2.73175e-012 1.00346e-010 -4.28452e-011
175
root  44.7387 39.7662 5.5486 179.66 -37.7735 -176.935
RightUpLeg  -3.87691 -9.3818 -2.52454
RightLeg  10.5245 -25.5175 1.23788
RightFoot  -6.30068 -0.283626 5.46439
RightToes  -1.33073e-015 0 -3.6325e-017
Spine  6.35133 3.04913 -1.69377
Spine1  1.21707 -0.276299 17.2025
HEad  -5.94071 51.5394 -17.0499
LeftShoulder1  0.429874 0.650028 -7.46566
LeftArm  -23.2654 1.37307 11.2295
LeftForeArm  0.793362 -45.843 -11.4881
LeftHand  0.0775124 1.27999 -2.42324
RightShoulder  6.45076 7.85191 49.7732
RightArm  -5.86272 4.66254 -0.421067
RightForeArm  22.4374 9.79487 11.6832
RightHand  -0.836348 3.107 -11.6306
LeftUpLeg  -4.41543 10.96 14.3588
LeftLeg  7.03987 -4.4629 -0.397859
LeftFoot  -2.45804 0.996285 -12.5973
LeftToes  -2.73175e-012 1.00346e-010 -4.28452e-011
